<svg xmlns="http://www.w3.org/2000/svg" xmlns:osb="http://www.openswatchbook.org/uri/2009/osb" xmlns:svg="http://www.w3.org/2000/svg" id="svg11300" width="28" height="4" version="1.0" style="display:inline;enable-background:new"><defs id="defs3"><linearGradient id="selected_bg_color" osb:paint="solid"><stop style="stop-color:#5294e2;stop-opacity:1" id="stop4137" offset="0"/></linearGradient></defs><metadata id="metadata4"/><g style="display:inline" id="layer1" transform="translate(0,-296)"><path style="opacity:1;fill:#000;fill-opacity:1;stroke:none;stroke-width:.1;stroke-linecap:round;stroke-linejoin:round;stroke-miterlimit:4;stroke-dasharray:none;stroke-dashoffset:0;stroke-opacity:.19607843;paint-order:fill markers stroke" id="path823" d="M 13,298 A 2,2 0 0 1 11.000002,300 2,2 0 0 1 9,298 2,2 0 0 1 10.999993,296 2,2 0 0 1 13,297.99999 L 11,298 Z"/><path id="path833" d="M 19,298 A 2,2 0 0 1 17.000002,300 2,2 0 0 1 15,298 2,2 0 0 1 16.999993,296 2,2 0 0 1 19,297.99999 L 17,298 Z" style="opacity:1;fill:#000;fill-opacity:1;stroke:none;stroke-width:.1;stroke-linecap:round;stroke-linejoin:round;stroke-miterlimit:4;stroke-dasharray:none;stroke-dashoffset:0;stroke-opacity:.19607843;paint-order:fill markers stroke"/></g></svg>