<svg xmlns="http://www.w3.org/2000/svg" xmlns:svg="http://www.w3.org/2000/svg" id="SVGRoot" width="20" height="20" version="1.1" viewBox="0 0 20 20"><metadata id="metadata4506"/><g id="layer1" transform="translate(0,4)"><path id="path2-4" d="M 15.4375,-2.5 H 3.5624999 C 1.603125,-2.5 0,-1.065625 0,0.6875 v 10.625 C 0,13.065625 1.603125,14.5 3.5624999,14.5 H 15.4375 C 17.396875,14.5 19,13.065625 19,11.3125 V 0.6875 C 19,-1.065625 17.396875,-2.5 15.4375,-2.5 Z m 1.1875,13.8125 c 0,0.575875 -0.543875,1.062501 -1.1875,1.062501 H 3.5624999 C 2.918875,12.375001 2.375,11.888375 2.375,11.3125 V 0.6875 c 0,-0.575875 0.543875,-1.0625 1.1874999,-1.0625 H 15.4375 c 0.643625,0 1.1875,0.486625 1.1875,1.0625 z" style="fill:#4d4d4d;stroke-width:1.12326264"/></g></svg>