<svg xmlns="http://www.w3.org/2000/svg" xmlns:svg="http://www.w3.org/2000/svg" xmlns:xlink="http://www.w3.org/1999/xlink" id="SVGRoot" width="40" height="40" version="1.1" viewBox="0 0 40 40"><defs id="defs4503"><linearGradient id="linearGradient859" x1="10" x2="10" y1="15" y2="-3" gradientTransform="matrix(1.0555552,0,0,1.0555524,-1.0555511,-0.33329005)" gradientUnits="userSpaceOnUse" xlink:href="#linearGradient857"/><linearGradient id="linearGradient857"><stop style="stop-color:gray;stop-opacity:1" id="stop853" offset="0"/><stop style="stop-color:gray;stop-opacity:1" id="stop855" offset="1"/></linearGradient></defs><metadata id="metadata4506"/><g id="layer1" transform="translate(0,24)"><path id="path2" d="m 19,-22.99784 c -10.4919586,0 -18.9978914,8.505919 -18.9978914,18.997859 0,10.4923721 8.5059328,18.99787 18.9978914,18.99787 10.492387,0 18.997894,-8.5054979 18.997894,-18.99787 0,-10.49194 -8.505507,-18.997859 -18.997894,-18.997859 z m 0,33.299619 c -7.898427,0 -14.3017834,-6.4033499 -14.3017834,-14.30176 0,-7.898413 6.4033564,-14.301759 14.3017834,-14.301759 7.898426,0 14.301785,6.403346 14.301785,14.301759 0,7.8984101 -6.403359,14.30176 -14.301785,14.30176 z" style="fill:#404040;fill-opacity:1;stroke:#ff7f2a;stroke-width:.00422172;stroke-miterlimit:4;stroke-dasharray:none;stroke-opacity:1"/><ellipse style="opacity:1;fill:none;fill-opacity:1;stroke:url(#linearGradient859);stroke-width:0;stroke-miterlimit:4;stroke-dasharray:none;stroke-opacity:1" id="path851" cx="9.5" cy="6" rx="9.5" ry="9.5"/></g></svg>