<svg xmlns="http://www.w3.org/2000/svg" xmlns:svg="http://www.w3.org/2000/svg" id="SVGRoot" width="40" height="40" version="1.1" viewBox="0 0 40 40"><metadata id="metadata4506"/><g id="layer1" transform="translate(0,24)"><path id="path2" d="m 19.000002,-22.99784 c -10.4919583,0 -18.99789114,8.505919 -18.99789114,18.9978591 0,10.492372 8.50593284,18.9978699 18.99789114,18.9978699 10.492387,0 18.997894,-8.5054979 18.997894,-18.9978699 0,-10.4919401 -8.505507,-18.9978591 -18.997894,-18.9978591 z m 0,33.299619 c -7.898427,0 -14.3017831,-6.4033499 -14.3017831,-14.3017599 0,-7.8984131 6.4033561,-14.3017591 14.3017831,-14.3017591 7.898426,0 14.301785,6.403346 14.301785,14.3017591 0,7.89841 -6.403359,14.3017599 -14.301785,14.3017599 z" style="fill:#66a1b4;fill-opacity:1;stroke:#ff7f2a;stroke-width:.00422172;stroke-miterlimit:4;stroke-dasharray:none;stroke-opacity:1"/><rect style="fill:#66a1b4;fill-opacity:1;stroke-width:1.74164665" id="rect4485-3" width="14" height="4.55" x="12" y="-6.55" rx="1.916"/></g></svg>