<svg xmlns="http://www.w3.org/2000/svg" xmlns:svg="http://www.w3.org/2000/svg" xmlns:xlink="http://www.w3.org/1999/xlink" id="SVGRoot" width="40" height="40" version="1.1" viewBox="0 0 40 40"><defs id="defs4503"><linearGradient id="linearGradient859" x1="10" x2="10" y1="15" y2="-3" gradientTransform="matrix(2.1111104,0,0,2.1111048,-11.562276,-1.9790928)" gradientUnits="userSpaceOnUse" xlink:href="#linearGradient857"/><linearGradient id="linearGradient857"><stop style="stop-color:gray;stop-opacity:1" id="stop853" offset="0"/><stop style="stop-color:gray;stop-opacity:1" id="stop855" offset="1"/></linearGradient></defs><metadata id="metadata4506"/><g id="layer1" transform="translate(0,24)"><path id="path2" d="m 19.000002,-22.99784 c -10.4919583,0 -18.99789114,8.505919 -18.99789114,18.9978591 0,10.492372 8.50593284,18.9978699 18.99789114,18.9978699 10.492387,0 18.997894,-8.5054979 18.997894,-18.9978699 0,-10.4919401 -8.505507,-18.9978591 -18.997894,-18.9978591 z m 0,33.299619 c -7.898427,0 -14.3017831,-6.4033499 -14.3017831,-14.3017599 0,-7.8984131 6.4033561,-14.3017591 14.3017831,-14.3017591 7.898426,0 14.301785,6.403346 14.301785,14.3017591 0,7.89841 -6.403359,14.3017599 -14.301785,14.3017599 z" style="fill:#b7bec8;fill-opacity:1;stroke:#ff7f2a;stroke-width:.00422172;stroke-miterlimit:4;stroke-dasharray:none;stroke-opacity:1"/><ellipse style="fill:#b7bec8;fill-opacity:1;stroke-width:2.30399799" id="path4532" cx="19" cy="-4" rx="9.5" ry="9.5"/><ellipse style="opacity:1;fill:none;fill-opacity:1;stroke:url(#linearGradient859);stroke-width:0;stroke-miterlimit:4;stroke-dasharray:none;stroke-opacity:1" id="path851" cx="9.549" cy="10.688" rx="19" ry="19"/></g></svg>